<svg width="56" height="61" viewBox="0 0 56 61" fill="none" xmlns="http://www.w3.org/2000/svg">
<path d="M15.3406 58.6949C8.45446 58.7964 4.10897 48.7676 8.85838 42.8383C11.3619 39.9074 13.1619 38.3939 16.2416 34.8133C16.6042 34.7718 19.8599 29.647 21.2106 27.5782C24.0725 23.6732 31.265 23.1513 34.3 26.3235L38.3677 30.5698C42.7756 34.5142 47.5935 37.574 49.6 39.324C55.6413 43.6045 54.5911 57.111 42.7739 56.568C40.764 56.5779 39.5501 56.5097 37.1757 56.2109C31.5565 55.5202 28.19 56.0374 22.3639 57.6307C19.1783 58.3995 17.4313 58.6182 15.3406 58.6949Z" fill="#D6F1F0"/>
<path d="M47.3454 16.03C37.7679 18.3646 41.7765 33.7626 49.5892 33.1493C57.6056 32.5681 57.3146 16.2572 47.3454 16.03Z" fill="#D6F1F0"/>
<path d="M34.5709 18.4725C44.4221 19.0136 45.4607 2.97342 37.8316 1.28513C30.0189 -0.493615 25.1543 15.343 34.5709 18.4725Z" fill="#D6F1F0"/>
<path d="M20.1791 19.0658C29.6365 17.2597 26.5953 1.60184 18.9529 1.78096C11.114 1.91657 10.4837 18.2822 20.1791 19.0658Z" fill="#D6F1F0"/>
<path d="M8.68123 33.3598C18.233 30.997 14.1913 15.3667 6.39616 15.9837C-1.60237 16.568 -1.26837 33.1223 8.68123 33.3598Z" fill="#D6F1F0"/>
</svg>
