<svg width="827" height="238" viewBox="0 0 827 238" fill="none" xmlns="http://www.w3.org/2000/svg">
<path fill-rule="evenodd" clip-rule="evenodd" d="M142.904 225C-9.87988 221.725 -5.37275 -0.545489 142.904 0.00100609C290.519 0.414489 294.2 221.875 142.904 225ZM246.508 124.001C242.524 175.5 195.204 220.5 135.931 218C130.588 216.411 128.056 215.191 124.973 212C124.235 206.751 122.577 205.358 117.003 206C107.041 193.5 93.5927 200 93.0946 179C99.21 179.765 100.068 161.5 90.106 159C78.1044 157.306 86.1212 154.5 75.1631 155C69.8007 145.292 68.1898 152 68.1898 139C66.3625 132.042 64.462 130.232 60.2202 129.001C49.7221 127.371 39.8762 134.703 39.3002 131.001C37.5113 126.569 37.237 124.182 37.3078 120.001C40.5456 118.698 41.7907 115.001 44.2811 110.001V103.001C46.4193 101.488 47.5363 100.453 49.2621 98.0006H68.1898V85.0007C70.7972 80.6691 71.1783 75.5007 68.1898 73.0008C67.9536 64.8787 68.9635 61.9528 75.1631 63.0008C76.179 59.2287 77.1973 57.3274 79.1479 54.0008L74.1669 32.0009C87.7633 21.5574 94.1399 17.3929 101.064 16.001C103.421 17.2344 103.815 19.4002 104.053 24.001H109.034V26.001C98.7649 29.9494 93.2052 32.161 93.0946 36.0009C91.7619 44.0516 91.891 47.1235 93.0946 51.0008C96.861 54.4826 99.0602 53.4271 103.057 49.0009H107.041C110.081 47.4467 111.511 46.4202 113.018 44.0009C125.406 45.6638 133.189 30.4993 134.935 30.0009C135.34 25.6515 134.843 23.5968 131.946 21.001C138.638 16.055 141.81 12.9282 146.889 7.00104C169.655 8.83871 177.561 12.4803 191.594 18.9441L191.718 19.001L192.714 20.001C181.744 25.7507 180.76 42.0009 194.706 43.0009V45.0009L186.737 53.0008H177.771C174.431 56.2917 172.91 58.4867 170.798 63.0008V68.0008C168.076 68.3905 166.781 68.8381 164.82 70.0008C159.26 62.6105 155.575 59.5311 146.889 58.0008C146.504 59.6625 145.969 60.1951 144.897 61.0008C147.457 68.1583 148.378 71.7036 148.881 77.0007C144.611 86.8376 141.522 91.2721 134.935 97.5006C136.602 101.701 137.47 104.933 138.919 112.001C136.318 119.622 134.7 123.597 131.448 130.001C132.617 132.619 138.365 136.915 149.379 145L158.345 137L163.326 141L163.824 158L170.798 163.5C167.973 165.916 166.916 167.343 165.817 170V176L162.828 179V185C166.479 190.957 166.824 192.947 166.813 196C171.165 202.953 174.284 201.5 177.771 199C181.64 192.589 184.415 189.078 190.721 183C194.824 175.865 197.587 172.106 203.672 166C205.337 161.987 206.703 160.259 210.645 159C214.301 148.317 216.305 143.165 219.611 139V121.001L217.619 116.001L226.086 124.001C225.274 131.05 224.403 134.84 222.6 141.5L235.55 154C239.712 144.652 239.037 127.501 243.022 121.001C244.828 121.437 245.541 122.178 246.508 124.001ZM40.2964 138C49.7602 181 91.6003 212 118.996 215C119.157 213.108 118.309 212.368 114.015 212C110.249 207.868 107.105 205.81 100.068 202.5C90.6471 197.129 85.6429 193.776 87.1174 175C95.087 173.5 91.1022 163 83.1327 165L78.1517 161C72.6726 163 70.2483 159.084 62.2126 150C62.2126 131 61.0229 136.676 40.2964 138ZM38.304 100.001C40.2964 77.0007 51.2545 54.0008 68.1898 38.0009C70.3652 42.7347 72.1745 48.5009 71.1783 54.0008C71.131 56.4502 70.3474 57.0919 68.1898 57.5008C65.128 58.174 63.8263 59.398 62.2126 63.0008C62.3451 67.3495 61.9268 68.4928 60.2202 68.0008V72.0008C65.2385 79.3445 62.2126 83.0007 62.2126 83.0007V92.0007H46.2735L38.304 100.001ZM236.546 117.001C238.181 110.571 240.423 109.796 247.504 115.001C244.479 70.6685 232.043 46.6806 199.687 25.001C189.725 26.501 184.731 38.0962 208.653 40.0009L189.725 59.0008C179.542 58.7064 176.35 61.2672 177.273 73.0008C170.768 74.4653 167.456 75.63 161.832 78.0007C159.388 73.1579 157.892 71.0415 154.859 69.0008C154.829 72.1039 155.306 74.3335 156.851 79.0007C153.944 80.6449 153.015 82.3325 152.866 87.0007C149.463 91.8871 147.336 94.536 142.904 99.0006C143.114 103.098 143.887 106.332 145.893 113.001C142.192 121.297 140.866 124.826 139.916 129.001L140.151 129.193C144.208 132.514 146.554 134.435 149.878 136C152.936 131.664 154.785 130.148 158.345 129.001C162.373 129.635 165.033 131.567 170.798 139V155C174.697 157.636 176.238 159.194 178.767 162V166L171.794 172C172.573 172.357 171.48 179.797 169.801 183C172.276 188.831 173.438 191.116 174.782 192C176.277 186.5 183.025 182.319 185.741 177C187.749 174.682 189.452 172.614 197.695 162C200.431 157.088 202.099 154.971 205.664 154C205.664 154 209.417 141.554 212.638 138L212.366 120.001H212.638C209.963 116.474 208.757 114.187 207.657 109.001H221.603C222.032 110.634 225.899 114.339 231.565 120.001C233.531 120.789 233.725 121.823 233.558 124.001C231.93 132.111 231.007 136.912 229.573 140L232.562 141C232.941 131.186 233.668 125.876 236.546 117.001ZM136.927 7.00104C126.869 7.61 120.35 8.91794 108.037 12.001C108.756 16.7142 110.312 17.6653 114.015 18.001C116.617 21.4133 116.017 24.3342 114.015 30.0009C108.693 33.2907 105.434 35.0464 99.0717 38.0009V44.0009C101.877 42.3178 103.407 41.8481 106.045 42.0009C108.154 39.4536 109.246 38.3542 111.026 37.0009C117.196 36.8835 120.421 36.5917 122.98 33.0009C127.561 28.6675 129.418 26.4089 125.969 24.001C124.413 22.5128 123.997 20.9494 123.977 17.001C131.094 12.9844 134.193 10.78 136.927 7.00104Z" fill="url(#paint0_linear_220_95)"/>
<path d="M247.504 115.001C240.423 109.796 238.181 110.571 236.546 117.001C233.668 125.876 232.941 131.186 232.562 141L229.573 140C231.007 136.912 231.93 132.111 233.558 124.001C233.725 121.823 233.531 120.789 231.565 120.001C225.899 114.339 222.032 110.634 221.603 109.001H207.657C208.757 114.187 209.963 116.474 212.638 120.001H212.366L212.638 138C209.417 141.554 205.664 154 205.664 154C202.099 154.971 200.431 157.088 197.695 162C189.452 172.614 187.749 174.682 185.741 177C183.025 182.319 176.277 186.5 174.782 192C173.438 191.116 172.276 188.831 169.801 183C171.48 179.797 172.573 172.357 171.794 172L178.767 166V162C176.238 159.194 174.697 157.636 170.798 155V139C165.033 131.567 162.373 129.635 158.345 129.001C154.785 130.148 152.936 131.664 149.878 136C146.554 134.435 144.208 132.514 140.151 129.193L139.916 129.001C140.866 124.826 142.192 121.297 145.893 113.001C143.887 106.332 143.114 103.098 142.904 99.0006C147.336 94.536 149.463 91.8871 152.866 87.0007C153.015 82.3325 153.944 80.6449 156.851 79.0007C155.306 74.3335 154.829 72.1039 154.859 69.0008C157.892 71.0415 159.388 73.1579 161.832 78.0007C167.456 75.63 170.768 74.4653 177.273 73.0008C176.35 61.2672 179.542 58.7064 189.725 59.0008L208.653 40.0009C184.731 38.0962 189.725 26.501 199.687 25.001C232.043 46.6806 244.479 70.6685 247.504 115.001Z" fill="url(#paint1_linear_220_95)"/>
<path d="M108.037 12.001C120.35 8.91794 126.869 7.61 136.927 7.00104C134.193 10.78 131.094 12.9844 123.977 17.001C123.997 20.9494 124.413 22.5128 125.969 24.001C129.418 26.4089 127.561 28.6675 122.98 33.0009C120.421 36.5917 117.196 36.8835 111.026 37.0009C109.246 38.3542 108.154 39.4536 106.045 42.0009C103.407 41.8481 101.877 42.3178 99.0717 44.0009V38.0009C105.434 35.0464 108.693 33.2907 114.015 30.0009C116.017 24.3342 116.617 21.4133 114.015 18.001C110.312 17.6653 108.756 16.7142 108.037 12.001Z" fill="url(#paint2_linear_220_95)"/>
<path d="M68.1898 38.0009C51.2545 54.0008 40.2964 77.0007 38.304 100.001L46.2735 92.0007H62.2126V83.0007C62.2126 83.0007 65.2385 79.3445 60.2202 72.0008V68.0008C61.9268 68.4928 62.3451 67.3495 62.2126 63.0008C63.8263 59.398 65.128 58.174 68.1898 57.5008C70.3474 57.0919 71.131 56.4502 71.1783 54.0008C72.1745 48.5009 70.3652 42.7347 68.1898 38.0009Z" fill="url(#paint3_linear_220_95)"/>
<path d="M118.996 215C91.6003 212 49.7602 181 40.2964 138C61.0229 136.676 62.2126 131 62.2126 150C70.2483 159.084 72.6726 163 78.1517 161L83.1327 165C91.1022 163 95.087 173.5 87.1174 175C85.6429 193.776 90.6471 197.129 100.068 202.5C107.105 205.81 110.249 207.868 114.015 212C118.309 212.368 119.157 213.108 118.996 215Z" fill="url(#paint4_linear_220_95)"/>
<path d="M46.3897 232.393C27.2439 232.675 15.1619 204.792 28.3669 188.306C35.3276 180.157 40.3322 175.949 48.895 165.994C49.9031 165.878 58.955 151.63 62.7104 145.878C70.6675 135.02 90.6654 133.569 99.1038 142.389L110.413 154.195C122.669 165.162 136.065 173.67 141.643 178.535C158.44 190.436 155.52 227.989 122.664 226.48C117.076 226.507 113.701 226.318 107.099 225.487C91.4758 223.566 82.1157 225.004 65.9173 229.434C57.06 231.572 52.2027 232.18 46.3897 232.393Z" fill="#D6F1F0"/>
<path d="M135.375 113.769C108.746 120.26 119.892 163.072 141.614 161.367C163.902 159.751 163.093 114.401 135.375 113.769Z" fill="#D6F1F0"/>
<path d="M99.8572 120.56C127.247 122.065 130.135 77.4674 108.923 72.7733C87.201 67.8278 73.6757 111.859 99.8572 120.56Z" fill="#D6F1F0"/>
<path d="M59.8433 122.209C86.1381 117.188 77.6826 73.6532 56.434 74.1512C34.6389 74.5282 32.8866 120.031 59.8433 122.209Z" fill="#D6F1F0"/>
<path d="M27.8746 161.952C54.432 155.383 43.1947 111.925 21.5213 113.64C-0.717482 115.265 0.211146 161.292 27.8746 161.952Z" fill="#D6F1F0"/>
<path d="M337.1 107.2C337.1 110.733 336.267 114.067 334.6 117.2C332.933 120.333 330.267 122.9 326.6 124.9C322.933 126.833 318.233 127.8 312.5 127.8H299.9V156H288.5V86.5H312.5C317.833 86.5 322.333 87.4333 326 89.3C329.733 91.1 332.5 93.5667 334.3 96.7C336.167 99.8333 337.1 103.333 337.1 107.2ZM312.5 118.5C316.833 118.5 320.067 117.533 322.2 115.6C324.333 113.6 325.4 110.8 325.4 107.2C325.4 99.6 321.1 95.8 312.5 95.8H299.9V118.5H312.5ZM398.473 127.1C398.473 129.167 398.339 131.033 398.073 132.7H355.973C356.306 137.1 357.939 140.633 360.873 143.3C363.806 145.967 367.406 147.3 371.673 147.3C377.806 147.3 382.139 144.733 384.673 139.6H396.973C395.306 144.667 392.273 148.833 387.873 152.1C383.539 155.3 378.139 156.9 371.673 156.9C366.406 156.9 361.673 155.733 357.473 153.4C353.339 151 350.073 147.667 347.673 143.4C345.339 139.067 344.173 134.067 344.173 128.4C344.173 122.733 345.306 117.767 347.573 113.5C349.906 109.167 353.139 105.833 357.273 103.5C361.473 101.167 366.273 100 371.673 100C376.873 100 381.506 101.133 385.573 103.4C389.639 105.667 392.806 108.867 395.073 113C397.339 117.067 398.473 121.767 398.473 127.1ZM386.573 123.5C386.506 119.3 385.006 115.933 382.073 113.4C379.139 110.867 375.506 109.6 371.173 109.6C367.239 109.6 363.873 110.867 361.073 113.4C358.273 115.867 356.606 119.233 356.073 123.5H386.573ZM422.991 110.2V140.7C422.991 142.767 423.458 144.267 424.391 145.2C425.391 146.067 427.058 146.5 429.391 146.5H436.391V156H427.391C422.258 156 418.325 154.8 415.591 152.4C412.858 150 411.491 146.1 411.491 140.7V110.2H404.991V100.9H411.491V87.2H422.991V100.9H436.391V110.2H422.991ZM469.798 156.7C465.132 156.7 460.932 155.9 457.198 154.3C453.465 152.633 450.532 150.3 448.398 147.3C446.265 144.3 445.198 140.8 445.198 136.8H457.398C457.665 139.8 458.832 142.267 460.898 144.2C463.032 146.133 465.998 147.1 469.798 147.1C473.732 147.1 476.798 146.167 478.998 144.3C481.198 142.367 482.298 139.9 482.298 136.9C482.298 134.567 481.598 132.667 480.198 131.2C478.865 129.733 477.165 128.6 475.098 127.8C473.098 127 470.298 126.133 466.698 125.2C462.165 124 458.465 122.8 455.598 121.6C452.798 120.333 450.398 118.4 448.398 115.8C446.398 113.2 445.398 109.733 445.398 105.4C445.398 101.4 446.398 97.9 448.398 94.9C450.398 91.9 453.198 89.6 456.798 88C460.398 86.4 464.565 85.6 469.298 85.6C476.032 85.6 481.532 87.3 485.798 90.7C490.132 94.0333 492.532 98.6333 492.998 104.5H480.398C480.198 101.967 478.998 99.8 476.798 98C474.598 96.2 471.698 95.3 468.098 95.3C464.832 95.3 462.165 96.1333 460.098 97.8C458.032 99.4667 456.998 101.867 456.998 105C456.998 107.133 457.632 108.9 458.898 110.3C460.232 111.633 461.898 112.7 463.898 113.5C465.898 114.3 468.632 115.167 472.098 116.1C476.698 117.367 480.432 118.633 483.298 119.9C486.232 121.167 488.698 123.133 490.698 125.8C492.765 128.4 493.798 131.9 493.798 136.3C493.798 139.833 492.832 143.167 490.898 146.3C489.032 149.433 486.265 151.967 482.598 153.9C478.998 155.767 474.732 156.7 469.798 156.7ZM518.65 109C520.583 106.467 523.217 104.333 526.55 102.6C529.883 100.867 533.65 100 537.85 100C542.65 100 547.017 101.2 550.95 103.6C554.95 105.933 558.083 109.233 560.35 113.5C562.617 117.767 563.75 122.667 563.75 128.2C563.75 133.733 562.617 138.7 560.35 143.1C558.083 147.433 554.95 150.833 550.95 153.3C547.017 155.7 542.65 156.9 537.85 156.9C533.65 156.9 529.917 156.067 526.65 154.4C523.383 152.667 520.717 150.533 518.65 148V182.2H507.25V100.9H518.65V109ZM552.15 128.2C552.15 124.4 551.35 121.133 549.75 118.4C548.217 115.6 546.15 113.5 543.55 112.1C541.017 110.633 538.283 109.9 535.35 109.9C532.483 109.9 529.75 110.633 527.15 112.1C524.617 113.567 522.55 115.7 520.95 118.5C519.417 121.3 518.65 124.6 518.65 128.4C518.65 132.2 519.417 135.533 520.95 138.4C522.55 141.2 524.617 143.333 527.15 144.8C529.75 146.267 532.483 147 535.35 147C538.283 147 541.017 146.267 543.55 144.8C546.15 143.267 548.217 141.067 549.75 138.2C551.35 135.333 552.15 132 552.15 128.2ZM603.523 100C607.723 100 611.457 100.9 614.723 102.7C618.057 104.5 620.657 107.167 622.523 110.7C624.457 114.233 625.423 118.5 625.423 123.5V156H614.123V125.2C614.123 120.267 612.89 116.5 610.423 113.9C607.957 111.233 604.59 109.9 600.323 109.9C596.057 109.9 592.657 111.233 590.123 113.9C587.657 116.5 586.423 120.267 586.423 125.2V156H575.023V82H586.423V107.3C588.357 104.967 590.79 103.167 593.723 101.9C596.723 100.633 599.99 100 603.523 100ZM690.465 127.1C690.465 129.167 690.332 131.033 690.065 132.7H647.965C648.298 137.1 649.932 140.633 652.865 143.3C655.798 145.967 659.398 147.3 663.665 147.3C669.798 147.3 674.132 144.733 676.665 139.6H688.965C687.298 144.667 684.265 148.833 679.865 152.1C675.532 155.3 670.132 156.9 663.665 156.9C658.398 156.9 653.665 155.733 649.465 153.4C645.332 151 642.065 147.667 639.665 143.4C637.332 139.067 636.165 134.067 636.165 128.4C636.165 122.733 637.298 117.767 639.565 113.5C641.898 109.167 645.132 105.833 649.265 103.5C653.465 101.167 658.265 100 663.665 100C668.865 100 673.498 101.133 677.565 103.4C681.632 105.667 684.798 108.867 687.065 113C689.332 117.067 690.465 121.767 690.465 127.1ZM678.565 123.5C678.498 119.3 676.998 115.933 674.065 113.4C671.132 110.867 667.498 109.6 663.165 109.6C659.232 109.6 655.865 110.867 653.065 113.4C650.265 115.867 648.598 119.233 648.065 123.5H678.565ZM713.084 108.9C714.75 106.1 716.95 103.933 719.684 102.4C722.484 100.8 725.784 100 729.584 100V111.8H726.684C722.217 111.8 718.817 112.933 716.484 115.2C714.217 117.467 713.084 121.4 713.084 127V156H701.684V100.9H713.084V108.9ZM790.563 127.1C790.563 129.167 790.429 131.033 790.163 132.7H748.063C748.396 137.1 750.029 140.633 752.963 143.3C755.896 145.967 759.496 147.3 763.763 147.3C769.896 147.3 774.229 144.733 776.763 139.6H789.062C787.396 144.667 784.363 148.833 779.963 152.1C775.629 155.3 770.229 156.9 763.763 156.9C758.496 156.9 753.763 155.733 749.563 153.4C745.429 151 742.163 147.667 739.763 143.4C737.429 139.067 736.263 134.067 736.263 128.4C736.263 122.733 737.396 117.767 739.663 113.5C741.996 109.167 745.229 105.833 749.363 103.5C753.563 101.167 758.363 100 763.763 100C768.963 100 773.596 101.133 777.663 103.4C781.729 105.667 784.896 108.867 787.163 113C789.429 117.067 790.563 121.767 790.563 127.1ZM778.663 123.5C778.596 119.3 777.096 115.933 774.163 113.4C771.229 110.867 767.596 109.6 763.263 109.6C759.329 109.6 755.963 110.867 753.163 113.4C750.363 115.867 748.696 119.233 748.163 123.5H778.663Z" fill="#D6F1F0"/>
<defs>
<linearGradient id="paint0_linear_220_95" x1="217.422" y1="45.5008" x2="79.9217" y2="182.976" gradientUnits="userSpaceOnUse">
<stop stop-color="#5AB4EE"/>
<stop offset="1" stop-color="#276794" stop-opacity="0"/>
</linearGradient>
<linearGradient id="paint1_linear_220_95" x1="217.422" y1="45.5008" x2="79.9217" y2="182.976" gradientUnits="userSpaceOnUse">
<stop stop-color="#5AB4EE"/>
<stop offset="1" stop-color="#276794" stop-opacity="0"/>
</linearGradient>
<linearGradient id="paint2_linear_220_95" x1="217.422" y1="45.5008" x2="79.9217" y2="182.976" gradientUnits="userSpaceOnUse">
<stop stop-color="#5AB4EE"/>
<stop offset="1" stop-color="#276794" stop-opacity="0"/>
</linearGradient>
<linearGradient id="paint3_linear_220_95" x1="217.422" y1="45.5008" x2="79.9217" y2="182.976" gradientUnits="userSpaceOnUse">
<stop stop-color="#5AB4EE"/>
<stop offset="1" stop-color="#276794" stop-opacity="0"/>
</linearGradient>
<linearGradient id="paint4_linear_220_95" x1="217.422" y1="45.5008" x2="79.9217" y2="182.976" gradientUnits="userSpaceOnUse">
<stop stop-color="#5AB4EE"/>
<stop offset="1" stop-color="#276794" stop-opacity="0"/>
</linearGradient>
</defs>
</svg>
