<svg width="394" height="16" viewBox="0 0 394 16" fill="none" xmlns="http://www.w3.org/2000/svg">
<path d="M219.507 10.8584H393.507M174.007 10.8584H0.00732422" stroke="#D6F1F0" stroke-width="0.2"/>
<path d="M194.217 11.9384C193.711 11.9384 193.254 11.8251 192.847 11.5984C192.441 11.3717 192.121 11.0484 191.887 10.6284C191.661 10.2017 191.547 9.70507 191.547 9.1384C191.547 8.5784 191.664 8.0884 191.897 7.6684C192.131 7.24173 192.451 6.9184 192.857 6.6984C193.271 6.47173 193.731 6.3584 194.237 6.3584C194.744 6.3584 195.201 6.47173 195.607 6.6984C196.014 6.9184 196.331 7.2384 196.557 7.6584C196.791 8.0784 196.907 8.57173 196.907 9.1384C196.907 9.70507 196.791 10.2017 196.557 10.6284C196.324 11.0484 196.001 11.3717 195.587 11.5984C195.181 11.8251 194.724 11.9384 194.217 11.9384ZM194.217 11.5384C194.611 11.5384 194.977 11.4517 195.317 11.2784C195.664 11.0984 195.941 10.8284 196.147 10.4684C196.354 10.1084 196.457 9.66507 196.457 9.1384C196.457 8.6184 196.354 8.1784 196.147 7.8184C195.941 7.4584 195.667 7.19173 195.327 7.0184C194.987 6.8384 194.621 6.7484 194.227 6.7484C193.834 6.7484 193.467 6.8384 193.127 7.0184C192.794 7.19173 192.524 7.4584 192.317 7.8184C192.111 8.1784 192.007 8.6184 192.007 9.1384C192.007 9.66507 192.107 10.1084 192.307 10.4684C192.514 10.8284 192.784 11.0984 193.117 11.2784C193.457 11.4517 193.824 11.5384 194.217 11.5384ZM203.363 6.4284V11.8584H202.913V10.6784C202.759 11.0917 202.503 11.4084 202.143 11.6284C201.789 11.8417 201.383 11.9484 200.923 11.9484C200.276 11.9484 199.746 11.7517 199.333 11.3584C198.926 10.9584 198.723 10.3684 198.723 9.5884V6.4284H199.163V9.5584C199.163 10.2051 199.326 10.7017 199.653 11.0484C199.979 11.3884 200.423 11.5584 200.983 11.5584C201.569 11.5584 202.036 11.3717 202.383 10.9984C202.736 10.6251 202.913 10.0717 202.913 9.3384V6.4284H203.363Z" fill="#D6F1F0"/>
</svg>
